<svg xmlns="http://www.w3.org/2000/svg" viewBox="0 0 640 640">
  <rect width="640" height="640" fill="#fafafa"/>
  <rect width="640" height="640" fill="url(#bgGlow)"/>
  <defs>
    <radialGradient id="bgGlow" cx="0.5" cy="0.35" r="0.75">
      <stop offset="0" stop-color="#ffffff"/>
      <stop offset="1" stop-color="#f1f1f0"/>
    </radialGradient>
    <linearGradient id="metal" x1="0" y1="0" x2="0" y2="1">
      <stop offset="0" stop-color="#e4e4e7"/>
      <stop offset="0.5" stop-color="#9ca3af"/>
      <stop offset="1" stop-color="#d1d5db"/>
    </linearGradient>
  </defs>
  <ellipse cx="320" cy="506" rx="185" ry="24" fill="#18181b" opacity="0.08"/>
  
  <g transform="rotate(-24 320 290)">
    
    <rect x="70" y="230" width="500" height="32" rx="5" fill="#c08552"/>
    
    <path d="M80 238 h480 M90 252 h460" stroke="#7c4a1e" stroke-width="2.5" opacity="0.5" fill="none"/>
    
    <rect x="70" y="282" width="500" height="32" rx="5" fill="#c08552"/>
    
    <path d="M80 290 h480 M90 304 h460" stroke="#7c4a1e" stroke-width="2.5" opacity="0.5" fill="none"/>
    
    <rect x="70" y="334" width="500" height="32" rx="5" fill="#c08552"/>
    
    <path d="M80 342 h480 M90 356 h460" stroke="#7c4a1e" stroke-width="2.5" opacity="0.5" fill="none"/>
  </g>
  
  <rect x="160" y="532" width="320" height="92" rx="18" fill="#92400e"/>
  <text x="320" y="572" font-family="Arial, Helvetica, sans-serif" font-size="27" font-weight="700" fill="#fff" text-anchor="middle">GRINDĂ 5×10</text>
  <text x="320" y="607.1" font-family="Arial, Helvetica, sans-serif" font-size="27" font-weight="700" fill="#fff" text-anchor="middle">4 m</text>
</svg>